<svg width="626" height="626" viewBox="0 0 626 626" fill="none" xmlns="http://www.w3.org/2000/svg">
<g clip-path="url(#clip0_2_42)">
<circle cx="237.35" cy="211.819" r="211.819" fill="#ADFFFF" fill-opacity="0.4"/>
<path d="M143.407 452.896C166.099 452.896 177.25 457.396 188.988 462.09C201.605 467.177 214.614 472.459 240.437 472.459C266.259 472.459 279.268 467.177 291.886 462.09C303.623 457.395 314.774 452.896 337.467 452.896C360.159 452.896 371.31 457.396 383.048 462.09C395.665 467.177 408.674 472.459 434.497 472.459C460.319 472.459 473.328 467.177 485.946 462.09C497.683 457.395 508.834 452.896 531.527 452.896C554.219 452.896 565.37 457.396 577.108 462.09C589.725 467.177 602.734 472.459 628.557 472.459C632.86 472.459 636.382 468.938 636.382 464.634C636.382 460.33 632.86 456.809 628.557 456.809C605.864 456.809 594.713 452.309 582.976 447.615C575.64 444.68 568.206 441.648 558.132 439.594V255.711C558.132 252.679 556.371 249.94 553.632 248.668L452.104 200.251C448.192 198.392 443.497 200.055 441.638 203.968C439.78 207.88 441.443 212.575 445.355 214.434L542.483 260.699V356.459L535.539 353.133V304.031C535.539 292.098 525.757 282.317 513.825 282.317C501.892 282.317 492.111 292.099 492.111 304.031V321.54C492.111 325.843 495.632 329.365 499.936 329.365C504.239 329.365 507.761 325.843 507.761 321.54V304.031C507.761 300.706 510.499 297.967 513.825 297.967C517.15 297.967 519.889 300.706 519.889 304.031V345.601L518.618 345.014L484.383 328.679V280.36C484.383 268.427 474.602 258.646 462.669 258.646C450.737 258.646 440.955 268.428 440.955 280.36V308.041L434.01 304.715V159.17H476.755C479.885 159.17 482.819 157.214 483.993 154.28C485.167 151.345 484.482 148.02 482.232 145.77L391.561 55.787C388.528 52.7549 383.54 52.7549 380.508 55.787L335.221 100.78C332.188 103.813 332.091 108.801 335.221 111.833C338.253 114.865 343.241 114.963 346.273 111.833L385.985 72.4145L457.681 143.525H314.292L329.062 128.853C332.094 125.821 332.192 120.832 329.062 117.8C326.029 114.768 321.041 114.67 318.009 117.8L289.742 145.873C287.492 148.123 286.807 151.448 287.981 154.383C289.155 157.317 292.089 159.273 295.219 159.273H338.061V191.649L218.334 248.576C215.595 249.847 213.834 252.586 213.834 255.618V279.485C213.834 283.789 217.356 287.31 221.659 287.31C225.963 287.31 229.484 283.789 229.484 279.485V260.607L338.06 208.865V304.625L331.408 307.755V280.27C331.408 268.337 321.627 258.556 309.694 258.556C297.762 258.556 287.98 268.338 287.98 280.27V328.492L280.253 332.209V304.039C280.253 292.105 270.471 282.324 258.539 282.324C246.606 282.324 236.825 292.106 236.825 304.039V352.945L229.489 356.467V299.247C229.489 294.943 225.968 291.422 221.664 291.422C217.36 291.422 213.839 294.943 213.839 299.247V429.535C213.839 433.839 217.36 437.36 221.664 437.36C225.968 437.36 229.489 433.839 229.489 429.535V413.005L354.787 353.339C374.643 343.852 397.335 343.852 417.191 353.339L515.786 400.289C519.699 402.148 524.394 400.485 526.252 396.572C528.11 392.66 526.448 387.965 522.535 386.107L423.94 339.157C399.879 327.712 372.198 327.712 348.135 339.157L229.49 395.594V373.782L297.275 341.503C297.959 341.405 298.546 341.21 299.133 340.916L326.911 327.711C327.498 327.418 328.085 327.027 328.574 326.635L354.69 314.213C374.546 304.725 397.238 304.725 417.094 314.213L444.188 327.125C444.579 327.32 444.873 327.614 445.264 327.809L473.042 341.014C473.434 341.21 473.825 341.308 474.216 341.405L542.391 373.879V395.691L540.044 394.518C536.131 392.659 531.436 394.322 529.578 398.234C527.72 402.147 529.382 406.842 533.295 408.7L542.391 413.004V437.751C538.968 437.555 535.349 437.359 531.436 437.359C518.525 437.359 508.744 438.729 500.626 440.685C491.04 421.123 476.564 404.201 458.566 391.681C438.906 378.085 415.92 370.26 392.054 369.086C387.75 368.89 384.033 372.216 383.838 376.52C383.642 380.823 386.968 384.54 391.271 384.736C412.203 385.714 432.353 392.561 449.568 404.592C464.729 415.155 477.053 429.24 485.466 445.575C483.607 446.26 481.749 447.042 479.89 447.825C468.153 452.52 457.002 457.019 434.309 457.019C411.617 457.019 400.466 452.52 388.729 447.825C376.111 442.738 363.102 437.456 337.279 437.456C311.457 437.456 298.448 442.738 285.83 447.825C285.439 447.923 285.146 448.118 284.754 448.216C296.883 422.883 318.109 402.928 344.714 392.463C348.724 390.898 350.68 386.3 349.115 382.29C347.55 378.28 342.953 376.324 338.943 377.889C304.219 391.582 277.516 419.458 265.192 454.574C258.541 456.041 250.52 456.921 240.152 456.921C217.459 456.921 206.308 452.422 194.571 447.727C181.953 442.641 168.944 437.359 143.122 437.359C138.818 437.359 135.297 440.88 135.297 445.184C135.297 449.487 139.111 452.911 143.415 452.911L143.407 452.896ZM252.465 304.025C252.465 300.699 255.204 297.96 258.529 297.96C261.855 297.96 264.594 300.699 264.594 304.025V339.237L252.465 345.008L252.465 304.025ZM456.505 280.354C456.505 277.028 459.244 274.289 462.569 274.289C465.895 274.289 468.634 277.028 468.634 280.354V321.24L456.505 315.469L456.505 280.354ZM418.26 159.16V297.47C418.162 297.47 417.967 297.372 417.869 297.372C416.695 296.883 415.619 296.492 414.445 296.101C414.25 296.003 414.152 296.003 413.956 295.905C412.88 295.514 411.707 295.221 410.631 294.829C410.435 294.829 410.337 294.732 410.142 294.732L409.261 294.438V201.611C409.261 188.602 398.6 177.94 385.59 177.94C372.581 177.94 361.92 188.602 361.92 201.611V227.63C361.92 231.933 365.441 235.455 369.745 235.455C374.048 235.455 377.57 231.933 377.57 227.63V201.71C377.57 197.308 381.189 193.689 385.59 193.689C389.992 193.689 393.611 197.308 393.611 201.71V291.693C392.535 291.595 391.361 291.497 390.285 291.497H389.698C387.253 291.399 384.71 291.399 382.265 291.497H381.678C380.504 291.595 379.33 291.595 378.059 291.79H377.667V247.775C377.667 243.471 374.146 239.95 369.842 239.95C365.539 239.95 362.017 243.471 362.017 247.775V294.822C361.92 294.822 361.822 294.92 361.724 294.92C361.626 294.92 361.431 295.018 361.333 295.018C360.257 295.311 359.083 295.702 358.007 296.094C357.811 296.191 357.714 296.191 357.518 296.289C356.344 296.681 355.268 297.072 354.095 297.561C353.997 297.561 353.899 297.659 353.703 297.659V159.152L418.26 159.16ZM303.622 280.354C303.622 277.028 306.36 274.289 309.686 274.289C313.011 274.289 315.75 277.028 315.75 280.354V315.273L303.622 321.044L303.622 280.354Z" fill="#028D96"/>
<path d="M628.557 499.551C605.864 499.551 594.713 495.052 582.976 490.357C570.358 485.271 557.349 479.989 531.527 479.989C505.704 479.989 492.695 485.27 480.078 490.357C468.34 495.052 457.189 499.551 434.497 499.551C411.804 499.551 400.653 495.052 388.916 490.357C376.298 485.271 363.289 479.989 337.467 479.989C311.644 479.989 298.635 485.27 286.018 490.357C274.28 495.052 263.129 499.551 240.437 499.551C217.744 499.551 206.593 495.052 194.856 490.357C182.238 485.271 169.229 479.989 143.407 479.989C139.103 479.989 135.582 483.51 135.582 487.814C135.582 492.117 139.103 495.639 143.407 495.639C166.099 495.639 177.25 500.138 188.988 504.833C201.605 509.919 214.614 515.201 240.437 515.201C266.259 515.201 279.268 509.919 291.886 504.833C303.623 500.138 314.774 495.639 337.467 495.639C360.159 495.639 371.31 500.138 383.048 504.833C395.665 509.919 408.674 515.201 434.497 515.201C460.319 515.201 473.328 509.919 485.946 504.833C497.683 500.138 508.834 495.639 531.527 495.639C554.219 495.639 565.37 500.138 577.108 504.833C589.725 509.919 602.734 515.201 628.557 515.201C632.86 515.201 636.382 511.68 636.382 507.376C636.382 503.072 632.86 499.551 628.557 499.551Z" fill="#028D96"/>
<path d="M362.999 386.683C363.488 386.683 363.977 386.683 364.466 386.586C366.618 386.194 368.672 385.803 370.824 385.51C375.127 384.923 378.159 381.01 377.573 376.706C376.986 372.403 373.073 369.468 368.77 369.957C366.324 370.251 363.879 370.642 361.531 371.131C357.325 371.914 354.489 376.022 355.369 380.325C356.054 384.14 359.282 386.683 362.998 386.683L362.999 386.683Z" fill="#028D96"/>
</g>
<defs>
<clipPath id="clip0_2_42">
<rect width="626" height="626" fill="white"/>
</clipPath>
</defs>
</svg>
