<svg width="64" height="64" viewBox="0 0 64 64" fill="none" xmlns="http://www.w3.org/2000/svg">
<path d="M45.3333 8H18.6667C12.776 8 8 12.776 8 18.6667V45.3333C8 51.224 12.776 56 18.6667 56H33.656V37.4373H27.408V30.1707H33.656V24.824C33.656 18.6267 37.4453 15.248 42.976 15.248C44.84 15.2427 46.7013 15.3387 48.5547 15.528V22.008H44.7467C41.7333 22.008 41.1467 23.432 41.1467 25.5333V30.16H48.3467L47.4107 37.4267H41.104V56H45.3333C51.224 56 56 51.224 56 45.3333V18.6667C56 12.776 51.224 8 45.3333 8Z" fill="#28ABB4"/>
</svg>
