<svg width="64" height="64" viewBox="0 0 64 64" fill="none" xmlns="http://www.w3.org/2000/svg">
<path d="M52.48 5.12H11.52C7.9872 5.12 5.12 7.9872 5.12 11.52V52.48C5.12 56.0128 7.9872 58.88 11.52 58.88H52.48C56.0128 58.88 58.88 56.0128 58.88 52.48V11.52C58.88 7.9872 56.0128 5.12 52.48 5.12ZM21.76 25.6V49.92H14.08V25.6H21.76ZM14.08 18.5216C14.08 16.7296 15.616 15.36 17.92 15.36C20.224 15.36 21.6704 16.7296 21.76 18.5216C21.76 20.3136 20.3264 21.76 17.92 21.76C15.616 21.76 14.08 20.3136 14.08 18.5216ZM49.92 49.92H42.24C42.24 49.92 42.24 38.0672 42.24 37.12C42.24 34.56 40.96 32 37.76 31.9488H37.6576C34.56 31.9488 33.28 34.5856 33.28 37.12C33.28 38.2848 33.28 49.92 33.28 49.92H25.6V25.6H33.28V28.8768C33.28 28.8768 35.7504 25.6 40.7168 25.6C45.7984 25.6 49.92 29.0944 49.92 36.1728V49.92Z" fill="#28ABB4"/>
</svg>
